<?xml version="1.0" standalone="no"?>
<!DOCTYPE svg PUBLIC "-//W3C//DTD SVG 20010904//EN"
 "http://www.w3.org/TR/2001/REC-SVG-20010904/DTD/svg10.dtd">
<svg version="1.0" xmlns="http://www.w3.org/2000/svg"
 width="225.000000pt" height="225.000000pt" viewBox="0 0 225.000000 225.000000"
 preserveAspectRatio="xMidYMid meet">

<g transform="translate(0.000000,225.000000) scale(0.100000,-0.100000)"
fill="#FFFF01" stroke="none">
<path d="M1098 2128 c-9 -7 -116 -186 -238 -398 -122 -212 -264 -457 -314
-545 -227 -392 -238 -413 -231 -435 4 -12 16 -25 28 -30 30 -12 1531 -12 1561
0 41 15 41 44 0 118 -160 287 -739 1280 -752 1290 -9 6 -21 12 -27 12 -6 0
-18 -6 -27 -12z m366 -720 c179 -312 329 -574 332 -583 6 -13 -67 -15 -671
-15 -615 0 -677 1 -671 16 18 47 671 1163 676 1157 4 -5 154 -263 334 -575z"/>
<path d="M1130 1750 c-28 -24 -44 -30 -82 -30 -26 0 -48 -3 -48 -7 0 -5 40
-80 89 -168 50 -88 88 -161 87 -163 -2 -1 -56 18 -121 43 -65 25 -122 44 -125
43 -4 -2 17 -93 46 -203 30 -110 54 -205 54 -212 0 -7 -20 -15 -48 -19 l-48
-6 66 -62 c102 -98 141 -131 153 -131 10 0 63 161 83 248 l6 28 -42 -21 c-23
-12 -43 -20 -45 -18 -5 5 -45 153 -45 165 0 6 62 -13 137 -42 76 -30 139 -52
141 -50 6 6 -204 629 -213 631 -6 2 -26 -10 -45 -26z m124 -246 c42 -127 76
-237 76 -244 0 -23 -32 -50 -59 -50 -18 0 -70 34 -164 107 -75 58 -135 108
-133 110 2 2 56 -21 121 -52 65 -31 122 -54 125 -53 4 2 -33 76 -82 166 -110
203 -111 207 -64 215 20 3 48 15 63 27 14 11 30 17 34 13 3 -4 41 -112 83
-239z m-74 -548 l-31 -97 -47 40 c-26 21 -63 56 -82 76 l-35 36 58 -25 c32
-15 65 -26 75 -26 9 0 32 23 50 51 18 28 36 49 38 46 3 -2 -9 -48 -26 -101z"/>
<path d="M565 478 c-49 -72 -89 -141 -89 -152 -1 -20 5 -21 93 -24 l94 -3 -7
-44 -6 -45 39 0 c38 0 39 1 45 45 5 29 12 45 21 45 16 0 35 30 35 54 0 10 -9
16 -21 16 -15 0 -19 5 -15 18 3 9 8 38 12 65 6 47 6 47 -22 47 -35 0 -52 -24
-61 -85 l-6 -45 -48 0 -49 0 37 58 c20 31 54 83 75 114 21 31 38 59 38 62 0 4
-17 6 -38 6 -38 0 -39 -1 -127 -132z"/>
<path d="M860 498 c-13 -62 -25 -119 -28 -125 -6 -19 63 -17 78 2 8 10 30 15
61 15 l49 0 0 -36 c0 -67 -10 -74 -110 -74 -88 0 -90 -1 -96 -25 -4 -14 -3
-29 1 -33 3 -4 52 -9 108 -10 125 -4 149 8 166 89 17 78 14 107 -14 135 -23
23 -33 25 -86 22 l-60 -3 6 35 c4 19 9 38 11 42 3 5 40 8 84 8 82 0 90 5 90
51 0 18 -8 19 -118 19 l-119 0 -23 -112z"/>
<path d="M1233 600 c-49 -20 -80 -128 -49 -175 9 -14 12 -25 6 -25 -17 0 -38
-43 -45 -92 -6 -42 -4 -50 18 -72 24 -24 34 -26 104 -26 101 0 121 6 139 42
22 43 30 134 13 154 -11 13 -11 17 4 25 17 10 37 67 37 107 0 13 -11 34 -25
47 -22 22 -32 25 -102 24 -43 0 -88 -4 -100 -9z m147 -82 c0 -50 -11 -67 -46
-74 -19 -3 -45 -3 -59 0 -20 5 -25 13 -25 39 0 46 16 57 77 57 48 0 53 -2 53
-22z m-30 -175 c0 -57 -9 -65 -71 -61 l-54 3 2 39 c3 48 14 56 76 56 l47 0 0
-37z"/>
<path d="M1516 598 c-19 -60 -22 -58 75 -58 49 0 89 -2 89 -5 0 -3 -36 -75
-80 -159 -44 -84 -80 -156 -80 -159 0 -4 17 -7 38 -7 l37 0 90 173 c50 94 90
183 90 197 l0 25 -128 3 c-97 2 -128 0 -131 -10z"/>
</g>
</svg>
